feature/customer-reviews
<svg aria-hidden="true" style="position: absolute; width: 0; height: 0; overflow: hidden;" version="1.1"
    xmlns="http://www.w3.org/2000/svg"
    xmlns:xlink="http://www.w3.org/1999/xlink">
    <defs>
        <symbol id="icon-test" viewBox="0 0 48 32">
            <path d="M0 5.334v-5.334h48v5.334h-48zM0 18.666h48v-5.332h-48v5.332zM0 32h48v-5.334h-48v5.334z"></path>
        </symbol>

<svg aria-hidden="true" style="position: absolute; width: 0; height: 0; overflow: hidden;" version="1.1" xmlns="http://www.w3.org/2000/svg" xmlns:xlink="http://www.w3.org/1999/xlink">
<defs>
<symbol id="icon-test" viewBox="0 0 48 32">
<path d="M0 5.334v-5.334h48v5.334h-48zM0 18.666h48v-5.332h-48v5.332zM0 32h48v-5.334h-48v5.334z"></path>
</symbol>
 feature/hero-header
 <!-- Hero Header -->
<symbol id="icon-arrow" viewBox="0 0 36 32">
<path stroke-linejoin="round" stroke-linecap="round" stroke-miterlimit="4" stroke-width="4" d="M2 16h32"></path>
<path stroke-linejoin="round" stroke-linecap="round" stroke-miterlimit="4" stroke-width="4" d="M20 2l14 14-14 14"></path>
</symbol>
<symbol id="icon-right" viewBox="0 0 32 32">
<path stroke-linejoin="round" stroke-linecap="round" stroke-miterlimit="4" stroke-width="2.6667" d="M10.667 5.333l10.667 10.667-10.667 10.667"></path>
</symbol>
<symbol id="icon-ice" viewBox="0 0 32 32">
<path d="M32 13.028c0-2.224-1.151-3.883-3.099-5.074-1.249-1.292-2.936-2.198-4.843-2.509-1.138-3.159-4.314-5.445-8.058-5.445-3.679 0-6.81 2.206-7.999 5.279-1.22-1.371-2.361-2.66-2.575-2.925-0.509-0.633-1.656-1.725-3.068-1.725-3.176 0-3.111 2.085 0 2.226 0.891 0.041 2.414 1.469 3.843 3.055-1.174 0.447-2.236 1.148-3.109 2.051-1.942 1.189-3.092 2.846-3.092 5.067 0 7.79 6.495 12.093 14.746 12.487-0.219 0.822-0.477 1.549-0.779 2.133-3.266 0.257-5.671 1.115-5.671 2.136 0.001 1.225 3.45 2.216 7.705 2.216 4.255 0 7.704-0.991 7.704-2.216 0-1.021-2.4-1.878-5.662-2.135-0.297-0.583-0.55-1.311-0.767-2.135 8.24-0.4 14.725-4.702 14.725-12.486zM30.032 12.924c-1.059 2.908-6.533 4.268-13.25 4.365 0.72-1.172 1.143-2.524 1.143-3.971 0-1.533-0.47-2.961-1.27-4.179 1.362-1.679 3.515-2.771 5.942-2.771 3.969-0.001 7.214 2.907 7.435 6.556v0zM16 1.049c3.097 0 5.755 1.771 6.879 4.283-0.095-0.003-0.188-0.013-0.283-0.013-2.658 0-5.029 1.153-6.592 2.949-1.564-1.798-3.942-2.949-6.602-2.949-0.091 0-0.18 0.010-0.271 0.013 1.124-2.51 3.773-4.282 6.868-4.282zM1.968 12.924c0.221-3.649 3.466-6.556 7.435-6.556 4.111 0 7.455 3.118 7.455 6.95 0 1.478-0.501 2.846-1.348 3.974-6.848-0.061-12.468-1.417-13.542-4.367v0zM19.645 19.567c-2.273 0.172-4.559 0.139-6.815-0.134-2.255-0.268-4.486-0.756-6.602-1.539 2.229 0.361 4.448 0.611 6.673 0.723 2.223 0.102 4.449 0.091 6.658-0.095 2.21-0.171 4.41-0.5 6.544-1.055 1.060-0.291 2.116-0.627 3.093-1.116 0.491-0.238 0.956-0.524 1.366-0.877 0.4-0.351 0.751-0.8 0.814-1.359 0.054 0.563-0.23 1.127-0.603 1.561-0.375 0.442-0.836 0.8-1.315 1.118-0.969 0.624-2.029 1.082-3.11 1.452-2.168 0.741-4.434 1.124-6.702 1.321z"></path>
</symbol>
<symbol id="icon-close" viewBox="0 0 32 32">
<path d="M26.667 7.303l-1.97-1.97-7.808 7.808-7.808-7.808-1.97 1.97 7.808 7.808-7.808 7.808 1.97 1.97 7.808-7.808 7.808 7.808 1.97-1.97-7.808-7.808 7.808-7.808z"></path>
</symbol>
<symbol id="icon-menu" viewBox="0 0 48 32">
<path  d="M0 5.333v-5.333h48v5.333h-48zM0 18.667h48v-5.333h-48v5.333zM0 32h48v-5.333h-48v5.333z"></path>
</symbol>
<symbol id="icon-ellipse" viewBox="0 0 32 32">
<path fill="#fff" style="fill: var(--color1, #fff)" d="M0 16c0 8.837 7.163 16 16 16s16-7.163 16-16c0-8.837-7.163-16-16-16s-16 7.163-16 16z"></path>
</symbol>

<!-- Hero Header ends here-->



 main


        <!-- contacts -->
        <symbol id="icon-vector-right" viewBox="0 0 19 32">
            <path fill="none" stroke="#fff" style="stroke: var(--color1, #fff)" stroke-linejoin="round" stroke-linecap="round" stroke-miterlimit="4" stroke-width="6.4" d="M3.2 3.2l11.552 12.8-11.552 12.8"></path>
        </symbol>

        <symbol id="icon-vector-right-1" viewBox="0 0 22 32">
            <path fill="none" stroke="#d41443" style="stroke: var(--color1, #d41443)" stroke-linejoin="round" stroke-linecap="round" stroke-miterlimit="4" stroke-width="6.4" d="M3.471 3.2l13.7 12.8-13.7 12.8"></path>
        </symbol>



        <symbol id="vector" viewBox="0 0 26 32">
            <path fill="none" stroke="#d41443" style="stroke: var(--color1, #d41443)" stroke-linejoin="round" stroke-linecap="round" stroke-miterlimit="4" stroke-width="6.4" d="M5.171 3.2l14.17 12.8-14.17 12.8"></path>

 feature/customer-reviews
            <symbol id="icon-btn" viewBox="0 0 32 32">
                <path d="M19.769 2.862c-0.371-0.39-0.891-0.634-1.468-0.642h-0.001c-0.008-0-0.017-0-0.027-0-0.569 0-1.085 0.231-1.458 0.604v0c-0.374 0.373-0.605 0.889-0.605 1.46 0 0.588 0.246 1.118 0.64 1.494l0.001 0.001 4.982 4.974h-16.568c-0.76 0-1.424 0.411-1.782 1.022l-0.005 0.010c-0.369 0.638-0.369 1.425 0 2.063s1.050 1.032 1.787 1.032h16.522l-4.935 4.944c-0.35 0.369-0.565 0.869-0.565 1.419 0 1.14 0.924 2.063 2.063 2.063 0.551 0 1.051-0.216 1.421-0.567l-0.001 0.001 8.427-8.427c0.373-0.371 0.604-0.885 0.604-1.452 0-0.002 0-0.005 0-0.007v0c0.001-0.017 0.001-0.034 0-0.051 0.001-0.008 0.001-0.017 0.001-0.026s-0-0.018-0.001-0.027l0 0.001c-0-0.57-0.231-1.085-0.604-1.459l0 0z"></path>

</symbol>
 main
 main

            </symbol>
        </defs>
    </svg>
