<svg aria-hidden="true" style="position: absolute; width: 0; height: 0; overflow: hidden;" version="1.1" xmlns="http://www.w3.org/2000/svg" xmlns:xlink="http://www.w3.org/1999/xlink">
<defs>
<symbol id="icon-test" viewBox="0 0 48 32">
<path d="M0 5.334v-5.334h48v5.334h-48zM0 18.666h48v-5.332h-48v5.332zM0 32h48v-5.334h-48v5.334z"></path>
</symbol>
<symbol id="icon-btn" viewBox="0 0 32 32">
<path d="M19.769 2.862c-0.371-0.39-0.891-0.634-1.468-0.642h-0.001c-0.008-0-0.017-0-0.027-0-0.569 0-1.085 0.231-1.458 0.604v0c-0.374 0.373-0.605 0.889-0.605 1.46 0 0.588 0.246 1.118 0.64 1.494l0.001 0.001 4.982 4.974h-16.568c-0.76 0-1.424 0.411-1.782 1.022l-0.005 0.010c-0.369 0.638-0.369 1.425 0 2.063s1.050 1.032 1.787 1.032h16.522l-4.935 4.944c-0.35 0.369-0.565 0.869-0.565 1.419 0 1.14 0.924 2.063 2.063 2.063 0.551 0 1.051-0.216 1.421-0.567l-0.001 0.001 8.427-8.427c0.373-0.371 0.604-0.885 0.604-1.452 0-0.002 0-0.005 0-0.007v0c0.001-0.017 0.001-0.034 0-0.051 0.001-0.008 0.001-0.017 0.001-0.026s-0-0.018-0.001-0.027l0 0.001c-0-0.57-0.231-1.085-0.604-1.459l0 0z"></path>
</symbol>
</defs>
</svg>
